<svg width="35" height="35" viewBox="0 0 35 35" fill="none" xmlns="http://www.w3.org/2000/svg">
<path d="M12.54 26.89H22.71C23.39 26.89 23.86 26.42 23.86 25.74V8.72999C23.86 8.04999 23.39 7.58999 22.71 7.58999H12.54C11.87 7.58999 11.4 8.05999 11.4 8.72999V25.74C11.4 26.42 11.87 26.89 12.54 26.89ZM13.51 15.56C13.23 15.56 13.01 15.34 13.01 15.04V9.70999C13.01 9.39999 13.22 9.19999 13.51 9.19999H21.73C22.03 9.19999 22.24 9.40999 22.24 9.70999V15.04C22.24 15.34 22.03 15.56 21.73 15.56H13.51ZM5.79999 34.26H29.45C32.86 34.26 34.64 32.44 34.64 29.09V5.40999C34.64 2.05999 32.86 0.23999 29.45 0.23999H5.79999C2.40999 0.23999 0.630005 2.00999 0.630005 5.40999V29.09C0.630005 32.49 2.40999 34.26 5.79999 34.26ZM5.85001 32.83C3.36001 32.83 2.06 31.54 2.06 29.03V5.48999C2.06 2.97999 3.37001 1.68999 5.85001 1.68999H29.41C31.82 1.68999 33.2 2.97999 33.2 5.48999V29.03C33.2 31.54 31.82 32.83 29.41 32.83H5.85001Z" fill="black"/>
</svg>
