<svg width="38" height="34" viewBox="0 0 38 34" fill="none" xmlns="http://www.w3.org/2000/svg">
<path d="M37.6896 14.7013L33.7515 11.4561V4.39207C33.7515 3.94082 33.4411 3.65112 33.0055 3.65112H31.6785C31.2457 3.65112 30.9325 3.94082 30.9325 4.39207V9.13302L20.6017 0.620481C19.6108 -0.201246 18.4917 -0.212389 17.4695 0.620481L0.304683 14.7013C0.0854253 14.8851 0 15.0578 0 15.2779C0 15.5926 0.253428 15.8767 0.663469 15.8767C0.885575 15.8767 1.02226 15.782 1.18456 15.6511L4.28835 13.1024V30.9102C4.28835 32.9352 5.38749 33.9993 7.45762 33.9993H30.5822C32.6495 33.9993 33.7487 32.9102 33.7487 30.9102V13.1191L36.8211 15.6511C36.9806 15.7793 37.1173 15.8767 37.3394 15.8767C37.7153 15.8767 38 15.6288 38 15.2946C38 15.0439 37.9146 14.8879 37.6896 14.704V14.7013ZM32.4758 30.6316C32.4758 32.094 31.8095 32.7514 30.3231 32.7514H23.7625V20.4673C23.7625 19.86 23.3553 19.4617 22.7345 19.4617H15.274C14.6476 19.4617 14.2432 19.86 14.2432 20.4673V32.7514H7.72814C6.23604 32.7514 5.56973 32.094 5.56973 30.6316V12.0522L18.2668 1.62327C18.7451 1.21101 19.2378 1.15251 19.8044 1.62327L32.473 12.0634V30.6288L32.4758 30.6316Z" fill="black"/>
</svg>
