<svg width="40" height="37" viewBox="0 0 40 37" fill="none" xmlns="http://www.w3.org/2000/svg">
<path d="M39.09 36.12C39.46 36.12 39.74 35.84 39.74 35.46V2.60999C39.74 1.37999 38.89 0.549988 37.59 0.549988H2.41999C1.12999 0.549988 0.269989 1.37999 0.269989 2.60999V35.46C0.269989 35.84 0.549988 36.12 0.909988 36.12C1.30999 36.12 1.57999 35.84 1.57999 35.46V2.76999C1.57999 2.20999 1.93999 1.84999 2.45999 1.84999H37.53C38.06 1.84999 38.41 2.20999 38.41 2.76999V35.46C38.41 35.84 38.69 36.12 39.08 36.12H39.09ZM36.63 35.63C36.8 35.63 36.92 35.5 36.92 35.32V3.62999C36.92 3.45999 36.8 3.31999 36.63 3.31999H21.04C20.88 3.31999 20.74 3.45999 20.74 3.62999V35.32C20.74 35.5 20.88 35.63 21.04 35.63H36.63ZM33.13 21.78C32.72 21.78 32.42 21.48 32.42 21.07V18.02C32.42 17.61 32.72 17.32 33.13 17.32C33.54 17.32 33.83 17.61 33.83 18.02V21.07C33.83 21.48 33.53 21.78 33.13 21.78ZM18.95 35.63C19.12 35.63 19.26 35.5 19.26 35.32V3.62999C19.26 3.45999 19.12 3.31999 18.95 3.31999H3.36999C3.19999 3.31999 3.07999 3.45999 3.07999 3.62999V35.32C3.07999 35.5 3.19999 35.63 3.36999 35.63H18.95Z" fill="black"/>
</svg>
