<svg width="30" height="38" viewBox="0 0 30 38" fill="none" xmlns="http://www.w3.org/2000/svg">
<path d="M25.56 31H24.13V32.49C24.13 34.99 22.75 36.29 20.35 36.29H5.53003C3.05003 36.29 1.73999 35 1.73999 32.49V5.65999C1.73999 3.15999 3.05003 1.85999 5.53003 1.85999H20.35C22.76 1.85999 24.13 3.14999 24.13 5.65999V24.98H25.56V5.58999C25.56 2.24999 23.79 0.429993 20.4 0.429993H5.47998C2.08998 0.429993 0.299988 2.19999 0.299988 5.58999V32.56C0.299988 35.95 2.07998 37.71 5.47998 37.71H20.4C23.78 37.71 25.56 35.9 25.56 32.56V31ZM7.15002 9.06999C8.35002 9.06999 9.28998 8.11999 9.28998 6.95999C9.28998 5.73999 8.34002 4.79999 7.15002 4.79999C5.96002 4.79999 5.01001 5.74999 5.01001 6.95999C5.01001 8.16999 5.96002 9.06999 7.15002 9.06999ZM12.94 9.06999C14.15 9.06999 15.09 8.11999 15.09 6.95999C15.09 5.73999 14.15 4.79999 12.94 4.79999C11.73 4.79999 10.8 5.74999 10.8 6.95999C10.8 8.16999 11.74 9.06999 12.94 9.06999ZM18.74 9.06999C19.94 9.06999 20.88 8.11999 20.88 6.95999C20.88 5.73999 19.94 4.79999 18.74 4.79999C17.54 4.79999 16.61 5.74999 16.61 6.95999C16.61 8.16999 17.54 9.06999 18.74 9.06999ZM7.15997 14.64C8.35997 14.64 9.29999 13.69 9.29999 12.51C9.29999 11.33 8.34997 10.36 7.15997 10.36C5.96997 10.36 5.02002 11.31 5.02002 12.51C5.02002 13.71 5.96997 14.64 7.15997 14.64ZM12.95 14.64C14.16 14.64 15.1 13.69 15.1 12.51C15.1 11.33 14.16 10.36 12.95 10.36C11.74 10.36 10.81 11.31 10.81 12.51C10.81 13.71 11.75 14.64 12.95 14.64ZM18.75 14.64C19.95 14.64 20.89 13.69 20.89 12.51C20.89 11.33 19.95 10.36 18.75 10.36C17.55 10.36 16.62 11.31 16.62 12.51C16.62 13.71 17.55 14.64 18.75 14.64ZM7.16998 20.26C8.36998 20.26 9.31 19.3 9.31 18.08C9.31 16.86 8.35998 15.94 7.16998 15.94C5.97998 15.94 5.03003 16.92 5.03003 18.08C5.03003 19.24 5.97998 20.26 7.16998 20.26ZM12.96 20.26C14.17 20.26 15.11 19.3 15.11 18.08C15.11 16.86 14.17 15.94 12.96 15.94C11.75 15.94 10.82 16.92 10.82 18.08C10.82 19.24 11.76 20.26 12.96 20.26ZM18.76 20.26C19.96 20.26 20.9 19.3 20.9 18.08C20.9 16.86 19.96 15.94 18.76 15.94C17.56 15.94 16.63 16.92 16.63 18.08C16.63 19.24 17.56 20.26 18.76 20.26ZM12.96 33.1C15.81 33.1 18.09 30.81 18.09 27.98C18.09 25.15 15.81 22.87 12.96 22.87C10.11 22.87 7.84003 25.16 7.84003 27.98C7.84003 30.8 10.13 33.1 12.96 33.1ZM14.28 29.93H27.65C28.71 29.93 29.58 29.06 29.58 27.97C29.58 26.88 28.72 26.04 27.65 26.04H14.28C13.22 26.04 12.34 26.89 12.34 27.97C12.34 29.05 13.23 29.93 14.28 29.93Z" fill="black"/>
</svg>
