<svg width="44" height="33" viewBox="0 0 44 33" fill="none" xmlns="http://www.w3.org/2000/svg">
<path d="M5.32001 32.42H25.33C28.74 32.42 30.52 30.62 30.52 27.27V5.95003C30.52 2.60003 28.74 0.780029 25.33 0.780029H5.32001C1.93001 0.780029 0.150024 2.55003 0.150024 5.95003V27.27C0.150024 30.65 1.93001 32.42 5.32001 32.42ZM5.37 31C2.88 31 1.58002 29.7 1.58002 27.19V6.02003C1.58002 3.52003 2.89 2.22003 5.37 2.22003H25.29C27.7 2.22003 29.08 3.52003 29.08 6.02003V27.19C29.08 29.7 27.69 31 25.29 31H5.37ZM16.03 15.9C16.38 15.9 16.66 15.62 16.66 15.27V6.32003C16.66 5.97003 16.38 5.69003 16.03 5.69003C15.68 5.69003 15.39 5.97003 15.39 6.32003V15.27C15.39 15.62 15.67 15.9 16.03 15.9ZM20.15 15.9C20.5 15.9 20.78 15.62 20.78 15.27V6.32003C20.78 5.97003 20.5 5.69003 20.15 5.69003C19.8 5.69003 19.52 5.97003 19.52 6.32003V15.27C19.52 15.62 19.8 15.9 20.15 15.9ZM24.29 15.9C24.64 15.9 24.92 15.62 24.92 15.27V6.32003C24.92 5.97003 24.64 5.69003 24.29 5.69003C23.94 5.69003 23.64 5.97003 23.64 6.32003V15.27C23.64 15.62 23.92 15.9 24.29 15.9ZM34.53 15.97C34.79 16.22 35.25 16.26 35.58 15.82C36.67 14.4 37.32 12.68 37.32 10.75C37.32 8.82003 36.67 7.11003 35.58 5.69003C35.28 5.30003 34.85 5.27003 34.59 5.49003C34.3 5.71003 34.26 6.11003 34.54 6.49003C35.56 7.92003 35.99 9.29003 35.99 10.75C35.99 12.21 35.56 13.59 34.54 15.01C34.29 15.36 34.29 15.73 34.54 15.97H34.53ZM38.71 19.76C38.95 20.07 39.42 20.1 39.74 19.74C41.91 17.3 43.07 14.22 43.07 10.75C43.07 7.28003 41.9 4.20003 39.74 1.76003C39.46 1.45003 39.07 1.45003 38.83 1.65003C38.5 1.89003 38.44 2.33003 38.8 2.73003C40.75 4.98003 41.75 7.75003 41.75 10.76C41.75 13.77 40.75 16.56 38.8 18.78C38.47 19.15 38.49 19.5 38.71 19.77V19.76Z" fill="black"/>
</svg>
