<svg width="31" height="39" viewBox="0 0 31 39" fill="none" xmlns="http://www.w3.org/2000/svg">
<path d="M15.61 30.97C23.87 30.97 30.6 24.26 30.6 15.95C30.6 7.64001 23.87 0.950012 15.61 0.950012C7.35002 0.950012 0.600037 7.66001 0.600037 15.95C0.600037 24.24 7.33002 30.97 15.61 30.97ZM15.61 29.48C8.02002 29.48 2.09003 23.56 2.09003 15.95C2.09003 8.34001 8.03002 2.43001 15.61 2.43001C23.19 2.43001 29.13 8.36001 29.13 15.95C29.13 23.54 23.18 29.48 15.61 29.48ZM15.61 24.61C20.44 24.61 24.23 20.79 24.23 15.95C24.23 11.11 20.44 7.31001 15.61 7.31001C10.78 7.31001 6.97003 11.13 6.97003 15.95C6.97003 20.77 10.79 24.61 15.61 24.61ZM15.61 19.99C13.36 19.99 11.59 18.21 11.59 15.95C11.59 13.69 13.36 11.93 15.61 11.93C17.86 11.93 19.61 13.7 19.61 15.95C19.61 18.2 17.85 19.99 15.61 19.99ZM14.88 37.82H16.35V30.3H14.88V37.82ZM9.07004 38.55H22.14C22.54 38.55 22.87 38.22 22.87 37.82C22.87 37.42 22.54 37.07 22.14 37.07H9.09003C8.69003 37.07 8.35004 37.41 8.35004 37.82C8.35004 38.23 8.67004 38.55 9.07004 38.55Z" fill="black"/>
</svg>
