<svg width="25" height="44" viewBox="0 0 25 44" fill="none" xmlns="http://www.w3.org/2000/svg">
<path d="M2.10004 17.53H22.9301V16.23H2.10004V17.53ZM0.260071 11.77C0.260071 18.37 4.54009 20.56 5.65009 34.15C5.71009 34.72 6.00007 35.02 6.70007 35.02H18.32C19.03 35.02 19.3201 34.72 19.3801 34.15C20.4901 20.56 24.7601 18.38 24.7601 11.77C24.7601 5.73999 19.3401 0.48999 12.5001 0.48999C5.66006 0.48999 0.260071 5.73999 0.260071 11.77ZM1.65009 11.77C1.65009 6.34999 6.60006 1.87999 12.5001 1.87999C18.4001 1.87999 23.36 6.34999 23.36 11.77C23.36 17.5 19.3501 19.56 18.0401 33.64H6.98004C5.66004 19.56 1.65009 17.51 1.65009 11.77ZM6.83008 38.41H18.19C18.64 38.41 19.0001 38.06 19.0001 37.59C19.0001 37.12 18.64 36.78 18.19 36.78H6.83008C6.38008 36.78 6.01007 37.13 6.01007 37.59C6.01007 38.05 6.37008 38.41 6.83008 38.41ZM12.5001 43.58C15.4401 43.58 17.58 42.22 17.72 40.17H7.30011C7.42011 42.21 9.57006 43.58 12.5001 43.58Z" fill="black"/>
</svg>
