<svg width="40" height="41" viewBox="0 0 40 41" fill="none" xmlns="http://www.w3.org/2000/svg">
<g clip-path="url(#clip0_44_448)">
<path d="M20 0C17.2333 0 14.6333 0.529578 12.2 1.58875C9.76665 2.68209 7.65001 4.15124 5.85 5.99625C4.04999 7.84126 2.61667 10.0108 1.55 12.505C0.516661 14.9992 0 17.6642 0 20.5C0 23.3358 0.516661 26.0008 1.55 28.495C2.61667 30.9892 4.04999 33.1587 5.85 35.0037C7.65001 36.8488 9.76665 38.3179 12.2 39.4113C14.6333 40.4704 17.2333 41 20 41C22.7667 41 25.3667 40.4704 27.8 39.4113C30.2333 38.3179 32.35 36.8488 34.15 35.0037C35.95 33.1587 37.3833 30.9892 38.45 28.495C39.4833 26.0008 40 23.3358 40 20.5C40 17.6642 39.4667 14.9992 38.4 12.505C37.3667 10.045 35.9417 7.88397 34.125 6.02188C32.3083 4.15978 30.2 2.69917 27.8 1.64C25.3667 0.546661 22.7667 0 20 0ZM20.8 39.36V24.6H26.4C26.6333 24.6 26.825 24.5231 26.975 24.3694C27.125 24.2156 27.2 24.0192 27.2 23.78C27.2 23.5408 27.125 23.3444 26.975 23.1906C26.825 23.0369 26.6333 22.96 26.4 22.96H20.8V17.22C20.8 16.0925 21.1917 15.1273 21.975 14.3244C22.7583 13.5215 23.7 13.12 24.8 13.12H28C28.2333 13.12 28.425 13.0431 28.575 12.8894C28.725 12.7356 28.8 12.5392 28.8 12.3C28.8 12.0608 28.725 11.8644 28.575 11.7106C28.425 11.5569 28.2333 11.48 28 11.48H24.8C23.2667 11.48 21.95 12.0437 20.85 13.1713C19.75 14.2988 19.2 15.6483 19.2 17.22V22.96H13.6C13.3667 22.96 13.175 23.0369 13.025 23.1906C12.875 23.3444 12.8 23.5408 12.8 23.78C12.8 24.0192 12.875 24.2156 13.025 24.3694C13.175 24.5231 13.3667 24.6 13.6 24.6H19.2V39.36C16.7333 39.2233 14.4333 38.6425 12.3 37.6175C10.1667 36.5925 8.30834 35.2344 6.725 33.5431C5.14166 31.8519 3.88334 29.8958 2.95 27.675C2.05 25.42 1.6 23.0283 1.6 20.5C1.6 17.9033 2.08333 15.4604 3.05 13.1713C4.01667 10.8821 5.33333 8.88334 7 7.175C8.66668 5.46666 10.6167 4.11709 12.85 3.12625C15.0833 2.13541 17.4667 1.64 20 1.64C22.5333 1.64 24.9167 2.13541 27.15 3.12625C29.3833 4.11709 31.3333 5.46666 33 7.175C34.6667 8.88334 35.9833 10.8821 36.95 13.1713C37.9167 15.4604 38.4 17.9033 38.4 20.5C38.4 23.0283 37.95 25.42 37.05 27.675C36.1167 29.8958 34.8583 31.8519 33.275 33.5431C31.6917 35.2344 29.8333 36.5925 27.7 37.6175C25.5667 38.6425 23.2833 39.2233 20.85 39.36H20.8Z" fill="white"/>
</g>
<defs>
<clipPath id="clip0_44_448">
<rect width="40" height="41" fill="white"/>
</clipPath>
</defs>
</svg>
