<svg width="40" height="41" viewBox="0 0 40 41" fill="none" xmlns="http://www.w3.org/2000/svg">
<g clip-path="url(#clip0_44_450)">
<path d="M20 11.48C17.5667 11.48 15.4917 12.3598 13.775 14.1194C12.0583 15.879 11.2 18.0058 11.2 20.5C11.2 22.9942 12.0583 25.121 13.775 26.8806C15.4917 28.6402 17.5667 29.52 20 29.52C22.4333 29.52 24.5083 28.6402 26.225 26.8806C27.9417 25.121 28.8 22.9942 28.8 20.5C28.8 18.0058 27.9417 15.879 26.225 14.1194C24.5083 12.3598 22.4333 11.48 20 11.48ZM20 27.88C18 27.88 16.3 27.1625 14.9 25.7275C13.5 24.2925 12.8 22.55 12.8 20.5C12.8 18.45 13.5 16.7075 14.9 15.2725C16.3 13.8375 18 13.12 20 13.12C22 13.12 23.7 13.8375 25.1 15.2725C26.5 16.7075 27.2 18.45 27.2 20.5C27.2 22.55 26.5 24.2925 25.1 25.7275C23.7 27.1625 22 27.88 20 27.88ZM29.6 0H10.4C8.96666 0 7.61667 0.273331 6.35 0.82C5.08333 1.40084 3.98334 2.16958 3.05 3.12625C2.11666 4.08292 1.36667 5.21041 0.8 6.50875C0.266664 7.80709 0 9.19083 0 10.66V30.34C0 31.8092 0.266664 33.1929 0.8 34.4913C1.36667 35.7896 2.11666 36.9171 3.05 37.8738C3.98334 38.8304 5.08333 39.5992 6.35 40.18C7.61667 40.7267 8.96666 41 10.4 41H29.6C31.0333 41 32.3833 40.7267 33.65 40.18C34.9167 39.5992 36.0167 38.8304 36.95 37.8738C37.8833 36.9171 38.6333 35.7896 39.2 34.4913C39.7333 33.1929 40 31.8092 40 30.34V10.66C40 9.19083 39.7333 7.80709 39.2 6.50875C38.6333 5.21041 37.8833 4.08292 36.95 3.12625C36.0167 2.16958 34.9167 1.40084 33.65 0.82C32.3833 0.273331 31.0333 0 29.6 0ZM38.4 30.34C38.4 32.8342 37.5417 34.961 35.825 36.7206C34.1083 38.4802 32.0333 39.36 29.6 39.36H10.4C7.96665 39.36 5.89168 38.4802 4.175 36.7206C2.45832 34.961 1.6 32.8342 1.6 30.34V10.66C1.6 8.16582 2.45832 6.03897 4.175 4.27938C5.89168 2.51978 7.96665 1.64 10.4 1.64H29.6C32.0333 1.64 34.1083 2.51978 35.825 4.27938C37.5417 6.03897 38.4 8.16582 38.4 10.66V30.34ZM32 9.84C32 10.2842 31.8417 10.6685 31.525 10.9931C31.2083 11.3177 30.8333 11.48 30.4 11.48C29.9667 11.48 29.5917 11.3177 29.275 10.9931C28.9583 10.6685 28.8 10.2842 28.8 9.84C28.8 9.39583 28.9583 9.01146 29.275 8.68688C29.5917 8.36229 29.9667 8.2 30.4 8.2C30.8333 8.2 31.2083 8.36229 31.525 8.68688C31.8417 9.01146 32 9.39583 32 9.84Z" fill="white"/>
</g>
<defs>
<clipPath id="clip0_44_450">
<rect width="40" height="41" fill="white"/>
</clipPath>
</defs>
</svg>
