<svg width="40" height="41" viewBox="0 0 40 41" fill="none" xmlns="http://www.w3.org/2000/svg">
<g clip-path="url(#clip0_44_454)">
<path d="M37.6 0H2.4C1.73333 0 1.16667 0.239164 0.7 0.7175C0.233331 1.19584 0 1.77666 0 2.46V38.54C0 39.2233 0.233331 39.8042 0.7 40.2825C1.16667 40.7608 1.73333 41 2.4 41H37.6C38.2667 41 38.8333 40.7608 39.3 40.2825C39.7667 39.8042 40 39.2233 40 38.54V2.46C40 1.77666 39.7667 1.19584 39.3 0.7175C38.8333 0.239164 38.2667 0 37.6 0ZM38.4 38.54C38.4 38.7792 38.325 38.9756 38.175 39.1294C38.025 39.2831 37.8333 39.36 37.6 39.36H2.4C2.16667 39.36 1.975 39.2831 1.825 39.1294C1.675 38.9756 1.6 38.7792 1.6 38.54V2.46C1.6 2.22083 1.675 2.02438 1.825 1.87063C1.975 1.71687 2.16667 1.64 2.4 1.64H37.6C37.8333 1.64 38.025 1.71687 38.175 1.87063C38.325 2.02438 38.4 2.22083 38.4 2.46V38.54ZM12.8 17.22V30.34C12.8 30.5792 12.725 30.7756 12.575 30.9294C12.425 31.0831 12.2333 31.16 12 31.16C11.7667 31.16 11.575 31.0831 11.425 30.9294C11.275 30.7756 11.2 30.5792 11.2 30.34V17.22C11.2 16.9808 11.275 16.7844 11.425 16.6306C11.575 16.4769 11.7667 16.4 12 16.4C12.2333 16.4 12.425 16.4769 12.575 16.6306C12.725 16.7844 12.8 16.9808 12.8 17.22ZM30.4 22.96V30.34C30.4 30.5792 30.325 30.7756 30.175 30.9294C30.025 31.0831 29.8333 31.16 29.6 31.16C29.3667 31.16 29.175 31.0831 29.025 30.9294C28.875 30.7756 28.8 30.5792 28.8 30.34V22.96C28.8 21.5933 28.3333 20.4317 27.4 19.475C26.4667 18.5183 25.3333 18.04 24 18.04C22.6667 18.04 21.5333 18.5183 20.6 19.475C19.6667 20.4317 19.2 21.5933 19.2 22.96V30.34C19.2 30.5792 19.125 30.7756 18.975 30.9294C18.825 31.0831 18.6333 31.16 18.4 31.16C18.1667 31.16 17.975 31.0831 17.825 30.9294C17.675 30.7756 17.6 30.5792 17.6 30.34V17.22C17.6 16.9808 17.675 16.7844 17.825 16.6306C17.975 16.4769 18.1667 16.4 18.4 16.4C18.6333 16.4 18.825 16.4769 18.975 16.6306C19.125 16.7844 19.2 16.9808 19.2 17.22V18.6038C19.8 17.9546 20.5083 17.425 21.325 17.015C22.1417 16.605 23.0333 16.4 24 16.4C25.7667 16.4 27.275 17.0406 28.525 18.3219C29.775 19.6031 30.4 21.1492 30.4 22.96ZM13.6 11.48C13.6 11.9242 13.4417 12.3085 13.125 12.6331C12.8083 12.9577 12.4333 13.12 12 13.12C11.5667 13.12 11.1917 12.9577 10.875 12.6331C10.5583 12.3085 10.4 11.9242 10.4 11.48C10.4 11.0358 10.5583 10.6515 10.875 10.3269C11.1917 10.0023 11.5667 9.84 12 9.84C12.4333 9.84 12.8083 10.0023 13.125 10.3269C13.4417 10.6515 13.6 11.0358 13.6 11.48Z" fill="white"/>
</g>
<defs>
<clipPath id="clip0_44_454">
<rect width="40" height="41" fill="white"/>
</clipPath>
</defs>
</svg>
