<svg width="56" height="66" viewBox="0 0 56 66" fill="none" xmlns="http://www.w3.org/2000/svg">
<path d="M17.0605 11.7246C17.0605 5.66016 21.9531 0.679688 28.0469 0.679688C34.1699 0.679688 39.0625 5.66016 39.0625 11.7246C39.0625 16.8809 35.5469 21.2168 30.7715 22.3887V40.9336C30.7715 49.6055 29.248 54.293 28.0469 54.293C26.875 54.293 25.3223 49.5762 25.3223 40.9336V22.3887C20.5469 21.1875 17.0605 16.8809 17.0605 11.7246ZM24.9121 12.3398C26.9922 12.3398 28.6914 10.582 28.6914 8.53125C28.6914 6.50977 26.9922 4.78125 24.9121 4.78125C22.9199 4.78125 21.1621 6.50977 21.1621 8.53125C21.1621 10.582 22.9199 12.3398 24.9121 12.3398ZM28.0762 65.0156C10.4102 65.0156 0.244141 58.9219 0.244141 52.4766C0.244141 44.7422 12.5195 40.0254 20.5762 39.9375V44.2148C14.9219 44.3027 6.19141 47.3789 6.19141 51.7734C6.19141 56.8711 15.4199 60.3867 28.0762 60.3867C40.6738 60.3867 49.9609 56.8125 49.9609 51.7734C49.9609 47.3789 41.2012 44.3027 35.5469 44.2148V39.9375C43.6035 40.0254 55.8789 44.7422 55.8789 52.4766C55.8789 58.9219 45.7422 65.0156 28.0762 65.0156Z" fill="#007AFF"/>
</svg>
