<?xml version="1.0" standalone="no"?>
<!DOCTYPE svg PUBLIC "-//W3C//DTD SVG 20010904//EN"
 "http://www.w3.org/TR/2001/REC-SVG-20010904/DTD/svg10.dtd">
<svg version="1.0" xmlns="http://www.w3.org/2000/svg"
 width="401.000000pt" height="113.000000pt" viewBox="0 0 401.000000 113.000000"
 preserveAspectRatio="xMidYMid meet">

<g transform="translate(0.000000,113.000000) scale(0.100000,-0.100000)"
fill="#000000" stroke="none">
<path d="M30 1125 c0 -3 51 -62 113 -131 l112 -125 3 36 3 35 80 0 80 0 -83
95 -83 94 -112 1 c-62 0 -113 -2 -113 -5z"/>
<path d="M599 1038 l-81 -93 81 -3 81 -3 0 -32 1 -32 42 46 c23 25 75 82 116
127 l73 82 -115 0 -116 0 -82 -92z"/>
<path d="M2595 1079 c-63 -9 -96 -28 -129 -73 -19 -25 -21 -41 -21 -206 0
-165 2 -181 21 -206 54 -72 131 -88 399 -82 168 3 184 6 230 28 86 44 90 54
90 260 0 206 -4 216 -90 259 -46 24 -59 25 -244 27 -108 2 -223 -1 -256 -7z
m425 -279 l0 -140 -205 0 -205 0 0 140 0 140 205 0 205 0 0 -140z"/>
<path d="M940 800 l0 -280 305 0 305 0 0 70 0 70 -220 0 -220 0 0 40 0 40 205
0 205 0 0 60 0 60 -205 0 -205 0 0 45 0 45 220 0 220 0 0 65 0 65 -305 0 -305
0 0 -280z"/>
<path d="M1620 800 l0 -280 85 0 85 0 2 199 3 200 155 -199 155 -200 133 0
132 0 0 280 0 280 -85 0 -85 0 -2 -201 -3 -202 -156 199 -155 199 -132 3 -132
3 0 -281z"/>
<path d="M3260 800 l0 -280 85 0 85 0 2 200 3 200 155 -200 155 -199 133 -1
132 0 0 280 0 280 -85 0 -85 0 -2 -201 -3 -201 -155 201 -155 200 -132 0 -133
1 0 -280z"/>
<path d="M126 594 l-119 -124 120 0 121 0 81 89 c45 49 81 91 81 95 0 3 -34 6
-75 6 l-75 0 0 30 c0 17 -3 30 -7 29 -5 0 -62 -57 -127 -125z"/>
<path d="M680 690 l0 -29 -80 -3 -81 -3 83 -92 82 -93 119 0 119 0 -117 125
c-65 69 -119 125 -121 125 -2 0 -4 -13 -4 -30z"/>
</g>
</svg>
