<svg width="173" height="48" viewBox="0 0 173 48" fill="none" xmlns="http://www.w3.org/2000/svg">
<g clip-path="url(#clip0_27_343)">
<mask id="mask0_27_343" style="mask-type:luminance" maskUnits="userSpaceOnUse" x="0" y="0" width="173" height="49">
<path d="M172.4 0H0V48.01H172.4V0Z" fill="white"/>
</mask>
<g mask="url(#mask0_27_343)">
<path d="M40.08 2.15991H66.5V7.65991H47.36V11.4699H65.06V16.3899H47.36V20.1899H66.47V25.8899H40.08V2.15991Z" fill="white"/>
<path d="M69.39 2.15991H80.67L94.34 19.3999H94.4V2.15991H101.68V25.8899H90.4L76.73 8.64991H76.67V25.8899H69.39V2.15991Z" fill="white"/>
<mask id="mask1_27_343" style="mask-type:luminance" maskUnits="userSpaceOnUse" x="0" y="0" width="173" height="49">
<path d="M172.4 0H0V48.01H172.4V0Z" fill="white"/>
</mask>
<g mask="url(#mask1_27_343)">
<path d="M104.6 10.4799C104.6 8.75989 104.83 7.33989 105.31 6.21989C105.78 5.10989 106.47 4.22989 107.38 3.57989C108.29 2.93989 109.38 2.48989 110.68 2.24989C111.97 2.00989 113.43 1.88989 115.07 1.88989H126.74C128.38 1.88989 129.84 2.00989 131.13 2.24989C132.42 2.48989 133.52 2.92989 134.43 3.57989C135.34 4.22989 136.02 5.09989 136.5 6.21989C136.97 7.33989 137.2 8.75989 137.2 10.4799V17.5599C137.2 19.3099 136.97 20.7299 136.5 21.8399C136.03 22.9499 135.34 23.8199 134.43 24.4599C133.52 25.1099 132.42 25.5499 131.13 25.7899C129.84 26.0299 128.38 26.1499 126.74 26.1499H115.07C113.43 26.1499 111.97 26.0299 110.68 25.7899C109.39 25.5499 108.29 25.1099 107.38 24.4599C106.47 23.8199 105.79 22.9399 105.31 21.8399C104.84 20.7399 104.6 19.3099 104.6 17.5599V10.4799ZM111.96 20.0299H129.97V8.01989H111.96V20.0299Z" fill="white"/>
<path d="M140.1 2.15991H151.38L165.05 19.3999H165.12V2.15991H172.4V25.8899H161.12L147.45 8.64991H147.38V25.8899H140.1V2.15991Z" fill="white"/>
<path d="M17.68 8.02L10.51 0H0.599976L10.76 11.12V8.02H17.68Z" fill="white"/>
<path d="M10.76 17.03L0 28.1H10.28L17.66 20.03H10.76V17.03Z" fill="white"/>
<path d="M28.78 11.1L38.91 0H29L21.85 8.02H28.78V11.1Z" fill="white"/>
<path d="M21.87 20.03L29.26 28.1H39.54L28.78 17.04V20.03H21.87Z" fill="white"/>
<path d="M57.43 36.3801V37.4701H53.61C52.92 37.4701 52.41 37.5901 52.06 37.8401C51.71 38.0801 51.54 38.4801 51.54 39.0301C51.54 39.4301 51.75 39.7701 52.17 40.0501C52.59 40.3401 53.23 40.6501 54.1 41.0101C54.44 41.1401 54.71 41.2501 54.89 41.3401C55.08 41.4201 55.33 41.5401 55.65 41.7101C55.97 41.8701 56.22 42.0201 56.41 42.1501C56.6 42.2801 56.81 42.4501 57.04 42.6501C57.27 42.8501 57.45 43.0601 57.59 43.2701C57.72 43.4801 57.83 43.7201 57.92 44.0001C58.01 44.2801 58.05 44.5701 58.05 44.8801C58.05 46.9801 56.66 48.0301 53.89 48.0301C52.34 48.0301 51.03 47.9401 49.95 47.7701V46.6501H54.18C54.89 46.6501 55.44 46.5001 55.83 46.2101C56.22 45.9201 56.42 45.4801 56.42 44.8901C56.42 44.3601 56.18 43.9101 55.71 43.5301C55.24 43.1601 54.52 42.7701 53.55 42.3601C52.36 41.8601 51.61 41.5101 51.27 41.3101C50.34 40.7401 49.88 40.0001 49.88 39.1001C49.88 37.1101 51.08 36.1201 53.47 36.1201C54.85 36.1201 56.18 36.2101 57.45 36.4001" fill="white"/>
<path d="M70.54 44.5501H70.62L74.13 36.3301H76.28L76.95 47.8101H75.31L74.94 38.0601H74.88L71.5 45.9201H69.61L66.29 37.9801H66.23C66.19 38.9501 66.14 39.9701 66.1 41.0701C66.05 42.1601 66 43.3801 65.94 44.7101C65.88 46.0501 65.84 47.0801 65.81 47.8101H64.19L64.85 36.3301H67.11L70.56 44.5501H70.54Z" fill="white"/>
<path d="M90.88 45.0701H85.39L84.33 47.8101H82.65L87.26 36.3301H89.07L93.61 47.8101H91.94L90.88 45.0701ZM88.09 38.0701L85.89 43.7501H90.38L88.18 38.0701H88.09Z" fill="white"/>
<path d="M108.21 39.4001C108.21 40.9201 107.5 42.2201 106.09 43.3001L108.49 47.8101H106.73L104.56 43.6101H101.05V47.8101H99.48V36.4101C101.1 36.2001 102.69 36.1001 104.25 36.1001C106.89 36.1001 108.21 37.2001 108.21 39.4101M101.05 37.5201V42.2801H105.13C105.56 41.9801 105.9 41.5701 106.17 41.0601C106.44 40.5501 106.57 40.0301 106.57 39.4901C106.57 38.1801 105.87 37.5201 104.46 37.5201H101.05Z" fill="white"/>
<path d="M119.04 37.6901V47.8101H117.48V37.6901H113.83V36.3301H122.72V37.6901H119.04Z" fill="white"/>
</g>
</g>
</g>
<defs>
<clipPath id="clip0_27_343">
<rect width="172.4" height="48.01" fill="white"/>
</clipPath>
</defs>
</svg>
