<svg width="43" height="35" viewBox="0 0 43 35" fill="none" xmlns="http://www.w3.org/2000/svg">
<g clip-path="url(#clip0_44_452)">
<path d="M28.3183 16.8229L18.7627 10.1562C18.6964 10.0868 18.6217 10.0434 18.5388 10.026C18.4558 10.0087 18.3812 10 18.3148 10C18.0826 10 17.8918 10.0781 17.7425 10.2344C17.5932 10.3906 17.5185 10.5903 17.5185 10.8333V24.1667C17.5185 24.3403 17.56 24.4878 17.6429 24.6094C17.7259 24.7309 17.8171 24.8264 17.9167 24.8958C17.983 24.9306 18.0494 24.9566 18.1157 24.974C18.1821 24.9913 18.2485 25 18.3148 25C18.3812 25 18.4558 24.9913 18.5388 24.974C18.6217 24.9566 18.6964 24.9132 18.7627 24.8438L28.3183 18.1771C28.4178 18.1076 28.5008 18.0122 28.5671 17.8906C28.6335 17.7691 28.6667 17.6389 28.6667 17.5C28.6667 17.3611 28.6335 17.2309 28.5671 17.1094C28.5008 16.9878 28.4178 16.8924 28.3183 16.8229ZM19.1111 22.6042V12.3958L26.4271 17.5L19.1111 22.6042ZM41.9051 5.52083C41.7392 4.86111 41.4489 4.2882 41.0341 3.80208C40.6194 3.31597 40.1134 2.95139 39.5162 2.70833V2.65625C37.8241 1.99652 35.9495 1.4757 33.8924 1.09375C31.8684 0.746526 29.9524 0.486112 28.1441 0.3125C26.3358 0.138888 24.8013 0.0520833 23.5405 0.0520833C22.2797 0.0173611 21.5995 0 21.5 0C21.4005 0 20.7203 0.0173611 19.4595 0.0520833C18.1987 0.0520833 16.6642 0.138888 14.8559 0.3125C13.0476 0.486112 11.1316 0.746526 9.10764 1.09375C7.05053 1.4757 5.17593 1.99652 3.4838 2.65625C2.91975 2.93403 2.42207 3.31597 1.99074 3.80208C1.55941 4.2882 1.2608 4.86111 1.09491 5.52083C0.862653 6.52778 0.622108 7.99478 0.373264 9.92188C0.12442 11.849 0 14.375 0 17.5C0 20.625 0.12442 23.151 0.373264 25.0781C0.622108 27.0052 0.862653 28.4722 1.09491 29.4792C1.2608 30.1389 1.55112 30.7118 1.96586 31.1979C2.3806 31.684 2.88657 32.0486 3.4838 32.2917V32.3438C5.17593 33.0035 7.05053 33.5243 9.10764 33.9062C11.1316 34.2535 13.0476 34.5139 14.8559 34.6875C16.6642 34.8611 18.1987 34.9479 19.4595 34.9479C20.7203 34.9826 21.4005 35 21.5 35H21.6493C21.9811 35 22.794 34.9826 24.088 34.9479C25.4151 34.9132 26.9496 34.809 28.6916 34.6354C30.4335 34.4618 32.2666 34.2014 34.191 33.8542C36.1485 33.4722 37.9236 32.9688 39.5162 32.3438C40.1134 32.066 40.6194 31.684 41.0341 31.1979C41.4489 30.7118 41.7392 30.1389 41.9051 29.4792C42.1373 28.4722 42.3779 27.0052 42.6267 25.0781C42.8756 23.151 43 20.625 43 17.5C43 14.375 42.8756 11.849 42.6267 9.92188C42.3779 7.99478 42.1373 6.52778 41.9051 5.52083ZM40.3623 29.0625C40.2627 29.4444 40.0885 29.7917 39.8397 30.1042C39.5909 30.4167 39.284 30.6424 38.919 30.7812C37.2932 31.441 35.485 31.9444 33.4942 32.2917C31.5035 32.6389 29.6206 32.8906 27.8455 33.0469C26.0704 33.2031 24.5691 33.2812 23.3414 33.2812C22.147 33.316 21.5332 33.3333 21.5 33.3333C21.4668 33.3333 20.853 33.316 19.6586 33.2812C18.4309 33.2812 16.9296 33.2031 15.1545 33.0469C13.3794 32.8906 11.4965 32.6389 9.50579 32.2917C7.51504 31.9444 5.7068 31.441 4.08102 30.7812C3.71605 30.6076 3.40915 30.3733 3.1603 30.0781C2.91146 29.783 2.73727 29.4444 2.63773 29.0625C2.40548 28.0903 2.17323 26.6754 1.94097 24.8177C1.70872 22.9601 1.59259 20.5208 1.59259 17.5C1.59259 14.4792 1.70872 12.0399 1.94097 10.1823C2.17323 8.32464 2.40548 6.90973 2.63773 5.9375C2.73727 5.55555 2.91146 5.21702 3.1603 4.92187C3.40915 4.62673 3.71605 4.39236 4.08102 4.21875C5.7068 3.55902 7.51504 3.05556 9.50579 2.70833C11.4965 2.36111 13.3794 2.10938 15.1545 1.95313C16.9296 1.79687 18.4309 1.71875 19.6586 1.71875C20.853 1.68403 21.4668 1.66667 21.5 1.66667C21.5332 1.66667 22.147 1.68403 23.3414 1.71875C24.5691 1.71875 26.0704 1.79687 27.8455 1.95313C29.6206 2.10938 31.5035 2.36111 33.4942 2.70833C35.485 3.05556 37.2932 3.55902 38.919 4.21875C39.284 4.39236 39.5909 4.62673 39.8397 4.92187C40.0885 5.21702 40.2627 5.55555 40.3623 5.9375C40.5945 6.90973 40.8268 8.32464 41.059 10.1823C41.2913 12.0399 41.4074 14.4792 41.4074 17.5C41.4074 20.5208 41.2913 22.9601 41.059 24.8177C40.8268 26.6754 40.5945 28.0903 40.3623 29.0625Z" fill="white"/>
</g>
<defs>
<clipPath id="clip0_44_452">
<rect width="43" height="35" fill="white"/>
</clipPath>
</defs>
</svg>
